<?xml version="1.0" standalone="no"?>
<!DOCTYPE svg PUBLIC "-//W3C//DTD SVG 20010904//EN"
 "http://www.w3.org/TR/2001/REC-SVG-20010904/DTD/svg10.dtd">
<svg version="1.0" xmlns="http://www.w3.org/2000/svg"
 width="688.000000pt" height="688.000000pt" viewBox="0 0 688.000000 688.000000"
 preserveAspectRatio="xMidYMid meet">
<metadata>
Created by potrace 1.11, written by Peter Selinger 2001-2013
</metadata>
<g transform="translate(0.000000,688.000000) scale(0.100000,-0.100000)"
fill="#000000" stroke="none">
<path d="M3360 6866 c-14 -9 -52 -27 -85 -42 -33 -15 -89 -40 -125 -57 -36
-17 -67 -31 -70 -32 -3 0 -25 -10 -50 -22 -25 -11 -67 -31 -95 -43 -27 -12
-72 -33 -98 -46 -27 -13 -55 -24 -63 -24 -8 0 -14 -4 -14 -10 0 -5 -6 -10 -14
-10 -7 0 -87 -34 -177 -76 -90 -42 -184 -85 -209 -95 -25 -11 -54 -24 -65 -29
-11 -5 -94 -44 -185 -86 -91 -42 -169 -77 -175 -78 -5 -2 -35 -14 -65 -28
-145 -67 -207 -95 -350 -160 -85 -39 -175 -79 -200 -90 -115 -52 -187 -92
-213 -119 -15 -16 -25 -29 -22 -29 3 0 -1 -12 -8 -27 -26 -51 -5 -145 43 -193
65 -65 158 -64 295 3 28 13 133 61 235 106 102 45 192 86 200 92 8 5 22 12 30
15 19 7 143 63 240 107 41 19 138 62 215 97 77 34 147 66 155 71 8 5 22 12 30
15 8 3 26 12 40 19 14 7 28 14 32 14 8 1 96 41 218 98 41 20 81 36 88 36 6 0
12 3 12 6 0 3 15 12 33 20 36 16 303 135 387 174 97 45 109 46 171 21 45 -18
408 -183 689 -311 30 -14 73 -33 95 -43 22 -10 76 -34 120 -55 44 -20 100 -46
125 -57 25 -11 72 -33 105 -48 33 -16 83 -38 110 -51 50 -22 138 -62 225 -102
25 -11 47 -21 50 -22 10 -4 81 -36 175 -80 53 -25 98 -45 100 -45 2 0 51 -22
110 -50 59 -27 108 -50 110 -50 2 0 41 -17 87 -39 93 -43 112 -52 358 -163
168 -76 209 -98 181 -98 -7 0 -38 -12 -69 -26 -31 -15 -91 -41 -132 -59 -72
-31 -140 -61 -205 -91 -168 -77 -695 -307 -712 -311 -13 -3 -23 -9 -23 -14 0
-5 -6 -9 -14 -9 -8 0 -47 -15 -88 -34 -40 -18 -103 -47 -140 -64 -38 -17 -68
-28 -68 -25 0 3 -6 1 -12 -5 -7 -5 -87 -42 -178 -82 -91 -40 -192 -85 -225
-100 -110 -51 -203 -90 -214 -90 -6 0 -11 -5 -11 -12 0 -6 -3 -9 -6 -5 -4 3
-25 -4 -48 -15 -22 -12 -43 -22 -46 -23 -27 -5 -80 -29 -80 -36 0 -5 -6 -9
-14 -9 -8 0 -49 -16 -90 -35 -42 -19 -78 -35 -81 -35 -3 0 -40 -16 -82 -36
-149 -69 -160 -70 -248 -30 -31 14 -63 26 -70 26 -8 0 -15 3 -17 8 -1 4 -39
22 -83 41 -67 29 -345 151 -475 209 -19 9 -37 16 -40 17 -14 4 -308 134 -408
181 -41 19 -77 34 -81 34 -3 0 -23 9 -44 20 -20 11 -37 18 -37 16 0 -2 -27 9
-60 25 -33 16 -62 29 -65 29 -2 0 -37 15 -77 34 -40 18 -127 57 -193 86 -66
29 -138 60 -160 70 -22 10 -119 53 -215 95 -96 43 -191 84 -210 93 -19 9 -37
16 -40 17 -3 1 -36 16 -74 33 -38 18 -70 32 -72 32 -2 0 -29 12 -61 26 -32 15
-80 36 -108 49 -27 12 -72 32 -100 45 -27 12 -86 38 -129 57 -44 19 -94 40
-110 48 -120 56 -206 53 -274 -9 -24 -21 -52 -67 -60 -96 -2 -8 -5 -833 -6
-1833 -2 -1926 -4 -1863 42 -1919 31 -37 54 -57 86 -71 17 -8 67 -32 111 -52
154 -71 220 -102 260 -120 22 -10 91 -42 153 -72 62 -29 115 -53 117 -53 1 0
54 -24 116 -54 63 -29 139 -65 169 -79 30 -13 87 -40 125 -58 39 -18 72 -33
75 -34 8 -2 69 -30 160 -73 47 -22 110 -51 140 -65 31 -14 96 -44 145 -67 50
-23 146 -68 215 -100 162 -74 249 -114 335 -154 106 -50 162 -75 255 -118 47
-21 97 -45 113 -54 15 -8 27 -12 27 -7 0 4 4 3 8 -2 4 -6 36 -24 72 -39 36
-16 115 -52 175 -81 61 -28 144 -67 185 -86 41 -18 104 -48 140 -65 56 -27 75
-31 135 -30 59 2 84 9 160 45 50 24 124 59 165 78 41 20 107 50 145 68 133 63
377 175 380 175 2 0 50 22 107 49 212 101 301 141 314 141 8 0 14 5 14 10 0 6
5 10 10 10 6 0 62 25 126 55 64 30 118 55 119 55 2 0 49 22 106 49 57 26 124
58 149 69 25 11 86 39 135 62 126 59 167 78 360 165 94 43 222 102 285 132 63
30 120 56 125 57 6 1 48 21 95 43 90 43 318 148 360 166 14 5 28 10 33 9 4 -1
7 1 7 6 0 4 15 14 33 21 41 19 85 65 108 116 18 38 18 116 16 1875 -2 1778 -3
1836 -21 1870 -28 53 -70 88 -144 121 -135 62 -158 72 -218 100 -34 16 -63 29
-66 29 -4 0 -46 19 -95 42 -48 23 -90 43 -93 43 -3 0 -45 20 -94 43 -49 23
-90 42 -92 42 -2 0 -34 14 -71 31 -38 17 -187 85 -332 151 -146 66 -272 124
-280 128 -9 5 -32 15 -51 23 -19 9 -61 27 -92 41 -31 14 -61 26 -66 26 -5 0
-15 7 -22 15 -7 9 -15 13 -18 10 -3 -2 -21 4 -41 14 -39 20 -129 61 -133 61
-2 -1 -40 17 -86 40 -45 22 -84 40 -87 40 -2 0 -50 22 -107 48 -57 27 -120 55
-140 62 -21 8 -38 18 -38 22 0 4 -6 8 -14 8 -7 0 -56 20 -107 44 -52 24 -116
54 -144 66 -290 131 -291 132 -530 246 -113 54 -207 68 -255 40z m-2820 -1931
c0 2 17 -4 38 -14 48 -25 116 -56 122 -57 3 0 21 -7 40 -16 19 -8 94 -41 165
-73 72 -31 150 -66 175 -77 25 -11 97 -43 160 -70 63 -27 140 -61 170 -75 30
-14 69 -31 85 -38 17 -7 104 -45 195 -85 91 -40 185 -82 210 -92 25 -11 69
-31 98 -44 29 -13 55 -24 57 -24 2 0 37 -15 77 -33 78 -36 130 -58 138 -60 3
0 26 -11 51 -24 26 -13 50 -23 53 -23 3 0 36 -15 73 -33 38 -18 73 -34 78 -36
6 -1 26 -9 45 -18 19 -8 49 -21 65 -28 70 -31 314 -139 363 -161 29 -13 54
-24 57 -24 2 0 43 -18 90 -40 47 -22 88 -40 90 -40 3 0 29 -11 58 -25 93 -42
172 -50 242 -23 25 9 269 115 410 178 22 10 114 50 205 90 91 39 179 78 195
85 17 8 55 25 85 38 30 13 206 91 390 172 376 165 370 162 463 204 38 17 70
31 73 31 2 0 38 16 80 35 41 19 77 35 79 35 2 0 32 13 67 29 114 53 822 363
833 364 15 3 16 -3155 1 -3186 -10 -21 -64 -52 -187 -106 -30 -14 -106 -49
-169 -79 -63 -29 -135 -63 -160 -74 -25 -11 -72 -33 -105 -48 -33 -16 -94 -44
-135 -63 -122 -55 -170 -78 -260 -120 -47 -21 -86 -38 -88 -38 -1 1 -19 -7
-40 -18 -20 -11 -66 -34 -102 -50 -36 -16 -193 -88 -350 -161 -157 -73 -295
-134 -307 -137 -13 -3 -23 -9 -23 -14 0 -5 -4 -9 -9 -9 -5 0 -53 -21 -108 -46
-54 -25 -116 -53 -138 -63 -22 -10 -58 -26 -80 -36 -22 -10 -94 -44 -160 -75
-66 -31 -135 -63 -154 -71 -18 -8 -72 -33 -120 -55 -47 -23 -88 -40 -90 -38
-2 2 -5 565 -6 1251 -1 687 -5 1262 -9 1280 -12 45 -70 109 -113 124 -89 29
-187 -14 -226 -100 -21 -46 -21 -51 -22 -1296 0 -1214 -1 -1250 -19 -1247 -10
2 -49 17 -85 34 -36 17 -93 43 -126 58 -151 69 -185 85 -255 117 -98 46 -201
94 -270 125 -30 14 -84 39 -120 55 -36 17 -87 41 -115 53 -27 13 -84 39 -125
58 -41 20 -77 36 -80 37 -7 2 -80 36 -175 81 -44 21 -82 38 -85 39 -8 3 -89
40 -170 78 -41 19 -100 46 -130 60 -103 47 -185 85 -260 119 -41 19 -101 47
-132 62 -32 14 -84 38 -115 52 -92 43 -197 91 -280 130 -175 81 -204 94 -213
94 -4 0 -17 11 -27 23 -18 23 -18 83 -17 1608 1 871 2 1587 3 1592 0 4 19 -2
41 -13 22 -11 40 -18 40 -15z"/>
</g>
</svg>
